<svg width="175" height="30" version="1.1" xmlns="http://www.w3.org/2000/svg">
 <path id="groove-topleft" d="M 0,2 A 2,2 0 0 1 2,0 L 2,2 Z" fill="#4c4949"/>
 <rect id="groove-top" x="2" y="0" width="1" height="2" fill="#4c4949"/>
 <path id="groove-topright" d="M 3,0 A 2,2 0 0 1 5,2 L 3,2 Z" fill="#4c4949"/>
 <rect id="groove-left" x="0" y="2" width="2" height="1" fill="#4c4949"/>
 <rect id="groove-center" x="2" y="2" width="1" height="1" fill="#4c4949"/>
 <rect id="groove-right" x="3" y="2" width="2" height="1" fill="#4c4949"/>
 <path id="groove-bottomleft" d="M 0,3 L 2,3 L 2,5 A 2,2 0 0 1 0,3 Z" fill="#4c4949"/>
 <rect id="groove-bottom" x="2" y="3" width="1" height="2" fill="#4c4949"/>
 <path id="groove-bottomright" d="M 3,3 L 5,3 A 2,2 0 0 1 3,5 Z" fill="#4c4949"/>
 <path id="groove-highlight-topleft" d="M 8,2 A 2,2 0 0 1 10,0 L 10,2 Z" fill="#f0544c"/>
 <rect id="groove-highlight-top" x="10" y="0" width="1" height="2" fill="#f0544c"/>
 <path id="groove-highlight-topright" d="M 11,0 A 2,2 0 0 1 13,2 L 11,2 Z" fill="#f0544c"/>
 <rect id="groove-highlight-left" x="8" y="2" width="2" height="1" fill="#f0544c"/>
 <rect id="groove-highlight-center" x="10" y="2" width="1" height="1" fill="#f0544c"/>
 <rect id="groove-highlight-right" x="11" y="2" width="2" height="1" fill="#f0544c"/>
 <path id="groove-highlight-bottomleft" d="M 8,3 L 10,3 L 10,5 A 2,2 0 0 1 8,3 Z" fill="#f0544c"/>
 <rect id="groove-highlight-bottom" x="10" y="3" width="1" height="2" fill="#f0544c"/>
 <path id="groove-highlight-bottomright" d="M 11,3 L 13,3 A 2,2 0 0 1 11,5 Z" fill="#f0544c"/>
 <circle id="horizontal-slider-handle" cx="17" cy="17" r="7" fill="#2b2b2b" stroke="#202020" stroke-width="1"/>
 <circle id="horizontal-slider-hover" cx="35" cy="17" r="7" fill="#333333" stroke="#202020" stroke-width="1"/>
 <circle id="horizontal-slider-focus" cx="53" cy="17" r="7" fill="#2b2b2b" stroke="#f0544c" stroke-width="1"/>
 <circle id="vertical-slider-handle" cx="71" cy="17" r="7" fill="#2b2b2b" stroke="#202020" stroke-width="1"/>
 <circle id="vertical-slider-hover" cx="89" cy="17" r="7" fill="#333333" stroke="#202020" stroke-width="1"/>
 <circle id="vertical-slider-focus" cx="107" cy="17" r="7" fill="#2b2b2b" stroke="#f0544c" stroke-width="1"/>
 <circle id="horizontal-slider-shadow" cx="125" cy="17" r="7.5" fill="#000000" fill-opacity="0.15"/>
 <circle id="vertical-slider-shadow" cx="143" cy="17" r="7.5" fill="#000000" fill-opacity="0.15"/>
 <rect id="hint-size" x="152" y="10" width="16" height="16" fill="#ff00ff"/>
 <rect id="hint-tile-center" x="170" y="0" width="1" height="1" fill="#ff00ff"/>
</svg>
